# xmcd
#
# Track frame offsets: 
#        150
#        12049
#        23934
#        35243
#        45922
#        59605
#        70467
#        81066
#        91082
#        106894
#
# Disc length: 1658 seconds
#
# Revision: 0
# Processed by: cddbd v1.5.2PL0 Copyright (c) Steve Scherf et al.
# Submitted via: ExactAudioCopy v0.99pb5
#
DISCID=7806780a
DTITLE=David Houston - Greatest Hits
DYEAR=2006
DGENRE=Country
TTITLE0=Mountain Of Love
TTITLE1=I'm Down To My Last 'i Love You'
TTITLE2=I Do My Swinging At Home
TTITLE3=Wonders Of The Wine
TTITLE4=My Woman's Good To Me
TTITLE5=Too Far Gone
TTITLE6=After Closing Time
TTITLE7=I Fall To Pieces
TTITLE8=Secret Love
TTITLE9=I Can't Stop Loving You
EXTD=
EXTT0=
EXTT1=
EXTT2=
EXTT3=
EXTT4=
EXTT5=
EXTT6=
EXTT7=
EXTT8=
EXTT9=
PLAYORDER=
